<?xml version="1.0" encoding="UTF-8" standalone="no"?>
<svg
   xmlns:dc="http://purl.org/dc/elements/1.1/"
   xmlns:cc="http://creativecommons.org/ns#"
   xmlns:rdf="http://www.w3.org/1999/02/22-rdf-syntax-ns#"
   xmlns:svg="http://www.w3.org/2000/svg"
   xmlns="http://www.w3.org/2000/svg"
   xmlns:sodipodi="http://sodipodi.sourceforge.net/DTD/sodipodi-0.0"
   xmlns:inkscape="http://www.inkscape.org/namespaces/inkscape"
   id="svg940"
   version="1.1"
   viewBox="0 0 193.36601 193.20358"
   height="193.20358mm"
   width="193.36601mm">
  <defs id="defs934" />
  <g transform="translate(-8.3169933,-51.898211)" id="layer1">
    <g id="g1823">
      <ellipse
         style="opacity:1;fill:#ffffff;fill-opacity:0.99115044;stroke:none"
         id="path2246"
         cx="105.08129"
         cy="148.49994"
         rx="96.601715"
         ry="96.60173" />
      <g
         aria-label="Trondhjems"
         style="font-style:normal;font-variant:normal;font-weight:bold;font-stretch:normal;font-size:26.84733009px;line-height:1.25;font-family:'Liberation Sans';fill:#000000;fill-opacity:1;stroke:none"
         id="text1050">
        <path d="m 43.611966,154.45761 v 15.48178 H 39.744797 V 154.45761 H 33.78018 v -2.98887 h 15.809512 v 2.98887 z" id="path1749" />
        <path d="M 49.253052,169.93939 V 159.0851 q 0,-1.1667 -0.03933,-1.94014 -0.02622,-0.78654 -0.06555,-1.38956 h 3.513225 q 0.03933,0.23597 0.104873,1.442 0.06555,1.19292 0.06555,1.58619 h 0.05244 q 0.537471,-1.49443 0.956961,-2.09745 0.419489,-0.61612 0.996287,-0.90452 0.576798,-0.30151 1.441996,-0.30151 0.707888,0 1.140487,0.19664 v 3.08062 q -0.891416,-0.19663 -1.573086,-0.19663 -1.37645,0 -2.149884,1.11427 -0.760325,1.11427 -0.760325,3.30348 v 6.9609 z" id="path1751" />
        <path d="m 72.119427,162.83429 q 0,3.44768 -1.913921,5.41403 -1.913921,1.95325 -5.296055,1.95325 -3.316589,0 -5.204292,-1.96635 -1.887703,-1.96636 -1.887703,-5.40093 0,-3.42146 1.887703,-5.37471 1.887703,-1.96636 5.282946,-1.96636 3.473898,0 5.296055,1.90081 1.835267,1.88771 1.835267,5.44026 z m -3.85406,0 q 0,-2.53005 -0.82587,-3.67054 -0.82587,-1.14048 -2.398956,-1.14048 -3.355916,0 -3.355916,4.81102 0,2.37274 0.812761,3.6181 0.82587,1.23225 2.372738,1.23225 3.395243,0 3.395243,-4.85035 z" id="path1753" />
        <path d="m 83.200767,169.93939 v -7.95719 q 0,-3.73608 -2.530047,-3.73608 -1.337123,0 -2.162993,1.1536 -0.81276,1.14048 -0.81276,2.93642 v 7.60325 h -3.683643 v -11.0116 q 0,-1.14049 -0.03933,-1.86148 -0.02622,-0.73411 -0.06555,-1.31091 h 3.513224 q 0.03933,0.24907 0.104873,1.33713 0.06555,1.07494 0.06555,1.48132 h 0.05244 q 0.747216,-1.62552 1.874594,-2.35963 1.127378,-0.73411 2.687355,-0.73411 2.254756,0 3.460789,1.38956 1.206032,1.38956 1.206032,4.06381 v 9.00591 z" id="path1755" />
        <path d="m 98.568763,169.93939 q -0.05244,-0.19663 -0.131091,-0.98318 -0.06555,-0.79965 -0.06555,-1.32401 h -0.05244 q -1.192923,2.56937 -4.535731,2.56937 -2.47761,0 -3.827842,-1.92703 -1.350232,-1.94014 -1.350232,-5.41403 0,-3.52634 1.415778,-5.44026 1.428886,-1.92703 4.037586,-1.92703 1.507541,0 2.595592,0.62924 1.10116,0.62923 1.691067,1.87459 h 0.02622 l -0.02622,-2.33341 v -5.17807 h 3.683641 v 16.36009 q 0,1.3109 0.10487,3.09373 z m -0.170418,-7.17065 q 0,-2.29408 -0.773434,-3.52633 -0.760324,-1.24536 -2.254756,-1.24536 -1.481322,0 -2.20232,1.20603 -0.720998,1.19293 -0.720998,3.65743 0,4.82413 2.8971,4.82413 1.455104,0 2.254756,-1.27158 0.799652,-1.28469 0.799652,-3.64432 z" id="path1757" />
        <path d="m 108.37852,158.58696 q 0.74722,-1.62553 1.8746,-2.35963 1.12737,-0.73411 2.68735,-0.73411 2.25476,0 3.46079,1.38956 1.20603,1.38956 1.20603,4.06381 v 8.9928 h -3.67053 v -7.94408 q 0,-3.73608 -2.53005,-3.73608 -1.33712,0 -2.16299,1.1536 -0.81276,1.14048 -0.81276,2.93642 v 7.59014 h -3.68364 v -19.45382 h 3.68364 v 5.30916 q 0,1.42889 -0.10487,2.79223 z" id="path1759" />
        <path d="m 120.12843,153.19914 v -2.71357 h 3.68364 v 2.71357 z m -0.0786,22.3116 q -1.31091,0 -2.22854,-0.11798 v -2.5956 l 0.66856,0.0524 q 0.94385,0 1.28469,-0.41949 0.35394,-0.40638 0.35394,-1.70418 V 155.7554 h 3.68364 v 15.86195 q 0,1.87459 -0.95696,2.88399 -0.94385,1.0094 -2.80533,1.0094 z" id="path1761" />
        <path d="m 132.32403,170.20157 q -3.1986,0 -4.91589,-1.8877 -1.71728,-1.90081 -1.71728,-5.53202 0,-3.51322 1.7435,-5.40093 1.7435,-1.8877 4.94211,-1.8877 3.05441,0 4.66682,2.0319 1.61241,2.0188 1.61241,5.92529 v 0.10488 h -9.09768 q 0,2.07123 0.76033,3.13306 0.77343,1.04872 2.18921,1.04872 1.95325,0 2.4645,-1.69107 l 3.4739,0.30151 q -1.50754,3.85406 -6.12193,3.85406 z m 0,-12.38805 q -1.29779,0 -2.00568,0.90453 -0.69478,0.90452 -0.73411,2.53004 h 5.5058 q -0.10487,-1.71728 -0.82587,-2.56937 -0.72099,-0.8652 -1.94014,-0.8652 z" id="path1763" />
        <path d="m 148.76698,169.93939 v -7.95719 q 0,-3.73608 -2.14989,-3.73608 -1.11427,0 -1.82215,1.14049 -0.69478,1.14049 -0.69478,2.94953 v 7.60325 h -3.68365 v -11.0116 q 0,-1.14049 -0.0393,-1.86148 -0.0262,-0.73411 -0.0656,-1.31091 h 3.51323 q 0.0393,0.24907 0.10487,1.33713 0.0655,1.07494 0.0655,1.48132 h 0.0524 q 0.68167,-1.62552 1.69107,-2.35963 1.0225,-0.73411 2.43828,-0.73411 3.25104,0 3.94582,3.09374 h 0.0787 q 0.721,-1.65174 1.73039,-2.37274 1.0094,-0.721 2.56938,-0.721 2.07122,0 3.15928,1.41578 1.08805,1.40267 1.08805,4.03759 v 9.00591 h -3.65743 v -7.95719 q 0,-3.73608 -2.14988,-3.73608 -1.07494,0 -1.76972,1.04873 -0.68167,1.03561 -0.74722,2.87088 v 7.77366 z" id="path1765" />
        <path d="m 175.18591,165.79693 q 0,2.05812 -1.69107,3.23794 -1.67796,1.1667 -4.65371,1.1667 -2.92332,0 -4.4833,-0.91763 -1.54686,-0.93074 -2.05812,-2.88399 l 3.23794,-0.48504 q 0.27529,1.0094 0.94385,1.42889 0.68167,0.41949 2.35963,0.41949 1.54687,0 2.25475,-0.39327 0.70789,-0.39327 0.70789,-1.23225 0,-0.68167 -0.5768,-1.07494 -0.56368,-0.40638 -1.92703,-0.68167 -3.11995,-0.61613 -4.208,-1.14049 -1.08805,-0.53747 -1.66485,-1.37645 -0.56369,-0.85209 -0.56369,-2.08434 0,-2.0319 1.55998,-3.15928 1.57308,-1.14049 4.44397,-1.14049 2.53004,0 4.0638,0.98318 1.54687,0.98318 1.92703,2.84466 l -3.26415,0.34084 q -0.15731,-0.8652 -0.77344,-1.28469 -0.61612,-0.4326 -1.95324,-0.4326 -1.31091,0 -1.96636,0.34084 -0.65545,0.32773 -0.65545,1.11427 0,0.61612 0.49814,0.98318 0.51125,0.35394 1.70418,0.5899 1.66485,0.34084 2.94953,0.70789 1.2978,0.35395 2.07123,0.85209 0.78654,0.49814 1.24536,1.28469 0.47193,0.77343 0.47193,1.99257 z" id="path1767" />
      </g>
      <g
         aria-label="Kajakklubb"
         style="font-style:normal;font-variant:normal;font-weight:bold;font-stretch:normal;font-size:26.84733009px;line-height:1.25;font-family:'Liberation Sans';fill:#000000;fill-opacity:1;stroke:none"
         id="text1056">
        <path d="m 50.288576,196.99635 -6.633178,-8.48155 -2.280974,1.7435 v 6.73805 H 37.507255 V 178.5257 h 3.867169 v 8.37669 l 8.324245,-8.37669 h 4.509513 l -7.891647,7.813 8.53399,10.65765 z" id="path1728" />
        <path d="m 59.843954,197.25853 q -2.05812,0 -3.211716,-1.11426 -1.153597,-1.12738 -1.153597,-3.15929 0,-2.20232 1.428887,-3.35591 1.441995,-1.1536 4.168677,-1.17982 l 3.054408,-0.0524 v -0.721 q 0,-1.38956 -0.485035,-2.05812 -0.485034,-0.68167 -1.586194,-0.68167 -1.022506,0 -1.507541,0.47192 -0.471926,0.45882 -0.589907,1.53376 l -3.840951,-0.18352 q 0.353944,-2.07123 1.887703,-3.13307 1.546867,-1.07494 4.208004,-1.07494 2.687355,0 4.142459,1.32402 1.455105,1.32401 1.455105,3.76229 v 5.16497 q 0,1.19292 0.262181,1.65174 0.27529,0.44571 0.904524,0.44571 0.419489,0 0.812761,-0.0787 v 1.99258 q -0.327726,0.0787 -0.589907,0.1442 -0.262181,0.0655 -0.524362,0.10487 -0.262181,0.0393 -0.563689,0.0655 -0.288399,0.0262 -0.681671,0.0262 -1.389559,0 -2.05812,-0.68167 -0.655453,-0.68167 -0.786543,-2.00568 h -0.07865 q -1.546867,2.79222 -4.666821,2.79222 z m 4.286659,-6.82981 -1.887703,0.0262 q -1.284686,0.0524 -1.822157,0.2884 -0.537471,0.22285 -0.82587,0.69478 -0.27529,0.47192 -0.27529,1.25847 0,1.00939 0.458816,1.50754 0.471926,0.48503 1.24536,0.48503 0.865197,0 1.573085,-0.47193 0.720998,-0.47192 1.127379,-1.29779 0.40638,-0.83898 0.40638,-1.76972 z" id="path1730" />
        <path d="m 71.103512,180.2561 v -2.71357 h 3.683642 v 2.71357 z m -0.07865,22.3116 q -1.310904,0 -2.228538,-0.11798 v -2.59559 l 0.668562,0.0524 q 0.943851,0 1.284686,-0.41949 0.353945,-0.40638 0.353945,-1.70417 v -14.97054 h 3.683642 v 15.86195 q 0,1.8746 -0.95696,2.88399 -0.943852,1.0094 -2.805337,1.0094 z" id="path1732" />
        <path d="m 81.392994,197.25853 q -2.05812,0 -3.211716,-1.11426 -1.153597,-1.12738 -1.153597,-3.15929 0,-2.20232 1.428887,-3.35591 1.441995,-1.1536 4.168677,-1.17982 l 3.054408,-0.0524 v -0.721 q 0,-1.38956 -0.485035,-2.05812 -0.485035,-0.68167 -1.586195,-0.68167 -1.022505,0 -1.50754,0.47192 -0.471926,0.45882 -0.589907,1.53376 l -3.840951,-0.18352 q 0.353944,-2.07123 1.887703,-3.13307 1.546867,-1.07494 4.208004,-1.07494 2.687355,0 4.142459,1.32402 1.455104,1.32401 1.455104,3.76229 v 5.16497 q 0,1.19292 0.262181,1.65174 0.27529,0.44571 0.904525,0.44571 0.419489,0 0.812761,-0.0787 v 1.99258 q -0.327727,0.0787 -0.589908,0.1442 -0.26218,0.0655 -0.524361,0.10487 -0.262181,0.0393 -0.563689,0.0655 -0.2884,0.0262 -0.681671,0.0262 -1.389559,0 -2.058121,-0.68167 -0.655452,-0.68167 -0.786542,-2.00568 h -0.07865 q -1.546867,2.79222 -4.666821,2.79222 z m 4.286659,-6.82981 -1.887703,0.0262 q -1.284687,0.0524 -1.822158,0.2884 -0.537471,0.22285 -0.82587,0.69478 -0.27529,0.47192 -0.27529,1.25847 0,1.00939 0.458817,1.50754 0.471926,0.48503 1.24536,0.48503 0.865197,0 1.573085,-0.47193 0.720998,-0.47192 1.127378,-1.29779 0.406381,-0.83898 0.406381,-1.76972 z" id="path1734" />
        <path d="m 101.69779,196.99635 -3.788512,-6.42343 -1.586195,1.10116 v 5.32227 h -3.683642 v -19.45382 h 3.683642 v 11.14269 l 5.060097,-5.87286 h 3.95893 l -4.98144,5.53202 5.3616,8.65197 z" id="path1736" />
        <path d="m 116.2215,196.99635 -3.78851,-6.42343 -1.5862,1.10116 v 5.32227 h -3.68364 v -19.45382 h 3.68364 v 11.14269 l 5.06009,-5.87286 h 3.95894 l -4.98144,5.53202 5.3616,8.65197 z" id="path1738" />
        <path d="m 121.68686,196.99635 v -19.45382 h 3.68364 v 19.45382 z" id="path1740" />
        <path d="m 132.18609,182.81236 v 7.9572 q 0,3.73607 2.51694,3.73607 1.33712,0 2.14988,-1.14048 0.82587,-1.1536 0.82587,-2.94954 v -7.60325 h 3.68364 v 11.0116 q 0,1.80905 0.10487,3.17239 h -3.51322 q -0.15731,-1.8877 -0.15731,-2.81844 h -0.0655 q -0.73411,1.61241 -1.8746,2.34652 -1.12738,0.7341 -2.68735,0.7341 -2.25476,0 -3.46079,-1.37645 -1.20603,-1.38955 -1.20603,-4.0638 v -9.00592 z" id="path1742" />
        <path d="m 158.12778,189.85192 q 0,3.51323 -1.41578,5.46648 -1.40267,1.94013 -4.02448,1.94013 -1.50754,0 -2.6087,-0.65545 -1.10116,-0.65545 -1.69107,-1.8877 h -0.0262 q 0,0.45882 -0.0656,1.25847 -0.0524,0.79965 -0.11798,1.0225 h -3.57877 q 0.10487,-1.21914 0.10487,-3.23793 v -16.21589 h 3.68364 v 5.42714 l -0.0524,2.30719 h 0.0524 q 1.24536,-2.72668 4.53573,-2.72668 2.51694,0 3.85406,1.91392 1.35024,1.90082 1.35024,5.38782 z m -3.84095,0 q 0,-2.41206 -0.70789,-3.57877 -0.70789,-1.1667 -2.18921,-1.1667 -1.49444,0 -2.28098,1.25847 -0.77343,1.24535 -0.77343,3.60498 0,2.25476 0.76032,3.51323 0.77344,1.25847 2.26787,1.25847 2.92332,0 2.92332,-4.88968 z" id="path1744" />
        <path d="m 174.1197,189.85192 q 0,3.51323 -1.41578,5.46648 -1.40267,1.94013 -4.02448,1.94013 -1.50754,0 -2.6087,-0.65545 -1.10116,-0.65545 -1.69107,-1.8877 h -0.0262 q 0,0.45882 -0.0656,1.25847 -0.0524,0.79965 -0.11798,1.0225 h -3.57877 q 0.10487,-1.21914 0.10487,-3.23793 v -16.21589 h 3.68364 v 5.42714 l -0.0524,2.30719 h 0.0524 q 1.24536,-2.72668 4.53573,-2.72668 2.51694,0 3.85406,1.91392 1.35024,1.90082 1.35024,5.38782 z m -3.84095,0 q 0,-2.41206 -0.70789,-3.57877 -0.70789,-1.1667 -2.18921,-1.1667 -1.49444,0 -2.28098,1.25847 -0.77343,1.24535 -0.77343,3.60498 0,2.25476 0.76032,3.51323 0.77344,1.25847 2.26787,1.25847 2.92332,0 2.92332,-4.88968 z" id="path1746" />
      </g>
      <g id="g1392" transform="matrix(2.4307812,0.12628211,-0.12628211,2.4307812,593.21519,55.435443)" style="stroke:none">
        <g id="text2269" style="font-style:normal;font-variant:normal;font-weight:bold;font-stretch:normal;font-size:19.75555611px;font-family:'Liberation Sans';fill:#000000;fill-opacity:1;stroke:none" transform="rotate(-3.3681106,-196.54114,52.72423)" aria-label="T K K">
          <path id="path887" style="font-size:9.87777805px;stroke:none" d="m -208.36832,16.831235 1.83215,5.393426 -1.34722,0.457648 -1.83214,-5.393425 -2.07791,0.705864 -0.35371,-1.041237 5.5076,-1.870928 0.35371,1.041237 z" />
          <path id="path889" style="font-size:9.87777805px;stroke:none" d="m -196.24597,21.014609 -2.40255,-3.149886 -0.84693,0.63127 -0.03,2.478909 -1.42272,-0.01723 0.0823,-6.795297 1.42272,0.01723 -0.0373,3.081756 3.09978,-3.044677 1.65904,0.02009 -2.93812,2.839225 3.09216,3.958933 z" />
          <path id="path891" style="font-size:9.87777805px;stroke:none" d="m -186.72014,23.507108 -1.14933,-3.79118 -1.01421,0.295238 -0.895,2.311897 -1.32687,-0.513666 2.45341,-6.337477 1.32687,0.513666 -1.11266,2.874129 3.9688,-1.76844 1.54726,0.598988 -3.74549,1.632493 1.51247,4.790304 z" />
        </g>
        <g transform="rotate(-2.4735585,-193.8619,54.683332)" id="g3654" style="stroke:none">
          <path style="fill:#1a1a1a;fill-opacity:1;stroke:none" d="m -191.91339,17.798838 a 0.94425046,0.94425046 0 0 1 -0.94425,0.94425 0.94425046,0.94425046 0 0 1 -0.94425,-0.94425 0.94425046,0.94425046 0 0 1 0.94425,-0.944251 0.94425046,0.94425046 0 0 1 0.94425,0.944251 z" id="circle5358" />
          <path style="fill:#1a1a1a;fill-opacity:1;stroke:none" d="m -203.24741,17.798838 a 0.92573583,0.92573583 0 0 1 -0.92573,0.925735 0.92573583,0.92573583 0 0 1 -0.92574,-0.925735 0.92573583,0.92573583 0 0 1 0.92574,-0.925736 0.92573583,0.92573583 0 0 1 0.92573,0.925736 z" id="circle5360" />
        </g>
      </g>
      <path id="path2300" d="M 104.91867,51.898308 A 96.601809,96.601809 0 0 0 8.3169933,148.50007 96.601809,96.601809 0 0 0 104.91867,245.10179 96.601809,96.601809 0 0 0 201.52041,148.50007 96.601809,96.601809 0 0 0 104.91867,51.898308 Z m 0,2.869394 A 93.732443,93.732443 0 0 1 198.65102,148.50007 93.732443,93.732443 0 0 1 104.91867,242.2324 93.732443,93.732443 0 0 1 11.186336,148.50007 93.732443,93.732443 0 0 1 104.91867,54.767702 Z" style="fill:#000000;fill-opacity:0.96652724;stroke:none" />
      <path style="fill:#000000;fill-opacity:1;stroke:none" d="m 78.965393,110.58229 c 1.989113,0.90805 2.938615,0.55524 3.774934,0.44336 0.836294,-0.112 0.739953,-0.19983 1.093063,-0.17597 0.05793,0.0441 1.846623,1.19331 1.934931,1.36044 0.08812,0.16722 -0.05598,0.62056 0.172818,0.95639 1.067529,1.84491 1.123173,2.51027 1.963263,5.97878 1.036057,3.02757 0.937796,3.13957 1.949974,3.89807 1.53336,0.75123 3.874001,1.57873 4.944694,1.49676 1.161314,-0.0891 1.756637,0.13484 2.732086,0.55014 0.10491,1.36516 -0.205192,0.80757 -0.29053,2.60795 -2.186175,0.98584 -6.455782,-0.005 -10.443039,2.11738 -3.987233,2.12443 -8.181433,1.22232 -16.19365,1.16329 -8.012192,-0.0591 -18.728163,-1.09553 -27.857491,-3.07342 -9.129328,-1.97794 -15.044385,-3.88892 -21.971937,-6.85837 -2.099911,2.54325 0.901308,3.50723 5.121431,6.70967 4.220124,3.20243 15.315612,9.73101 22.405175,11.15364 7.089539,1.42261 7.590005,-0.41201 17.494703,2.04421 9.904699,2.4562 33.492339,0.75319 42.928142,-2.46625 9.4358,-3.21946 9.0713,-3.37686 12.17494,1.43442 3.10367,4.81131 7.78108,4.06556 11.47124,3.8786 6.01243,-0.30465 12.87581,-3.42531 18.72757,-3.83742 6.04238,-0.42549 13.90255,-0.5885 19.80108,-0.3283 3.85542,0.17014 6.55229,-1.41329 9.34215,-2.92377 2.28656,-1.23796 10.33026,-7.50332 10.1458,-9.3343 -0.0665,-0.65686 -0.0957,-0.59594 -1.57518,-0.27407 -1.47944,0.32183 -11.3112,2.52779 -17.31018,3.52264 -7.14747,1.18524 -14.39211,1.80392 -21.69177,2.25702 -7.29973,0.4531 -14.62147,0.26007 -21.07721,0.24317 1.11237,-2.98997 -0.64132,-4.854 -3.40901,-4.91564 -5.80672,-0.90801 -10.62791,3.60704 -15.54283,-4.55889 -1.27185,-2.1131 -2.16597,-4.71705 -4.35103,-5.7479 -3.28985,-1.55199 1.47881,-2.79981 -1.50695,-6.10368 -1.57625,-1.10883 -2.68377,-1.2861 -4.767152,-0.53067 -2.186516,0.79287 -1.213914,0.61778 -1.520362,1.15102 -0.262855,0.45736 -0.716076,1.50075 -0.552604,2.4714 0.22734,0.93956 0.519184,1.89292 1.038223,1.86178 0.181094,-0.0122 -0.03749,0.57164 -0.360338,0.69616 -0.92117,0.35514 -0.329985,0.56354 -2.193672,-0.30459 -1.251399,-0.58291 -3.871663,-2.26621 -6.453275,-3.72348 -0.647825,-1.72899 -2.319634,-2.25871 -3.025195,-1.92356 -0.67791,-0.46479 -1.265078,-0.91958 -1.808433,-1.52579 -0.836026,-1.60149 -0.702178,-1.81676 -1.781196,-2.95838 -1.079018,-1.14162 -6.816144,-5.66381 -7.66955,-4.43848 -0.853405,1.22538 -0.720116,1.67733 -0.398699,3.8377 0.321418,2.1604 2.545855,3.26098 4.534944,4.16904 z m 10.226433,3.7043 c 0.47357,0.30298 2.373499,1.53007 3.29832,2.05629 0.924821,0.52619 2.797221,1.4601 3.527438,2.00815 0.730267,0.5481 0.318351,0.71034 0.208112,1.07897 -0.110263,0.36866 -1.540029,1.2032 -3.24107,1.066 -2.439342,-2.08814 -3.940328,-3.9297 -3.7928,-6.20941 z m 30.535714,15.42212 c 7.36371,-0.88881 10.38354,0.97482 5.07741,3.24609 -3.74039,3.92911 3.01352,6.9238 6.18067,7.32211 2.22412,0.2797 7.87863,-0.26972 7.87863,-0.26972 0,0 -0.47929,0.60155 -2.27285,1.03626 -5.96829,1.44656 -11.74424,1.86175 -14.60725,-3.82954 -2.86299,-5.69131 -7.81805,-2.24077 -10.86948,-1.7513 -10.85245,3.6869 -23.846141,5.37209 -35.287874,5.1561 8.200467,-1.53171 19.770694,-3.57929 27.010854,-5.51936 7.24015,-1.94007 11.82875,-4.96232 16.88989,-5.39064 z" id="path3448-6" />
    </g>
  </g>
</svg>
